<svg xmlns="http://www.w3.org/2000/svg" xmlns:xlink="http://www.w3.org/1999/xlink" width="2000" zoomAndPan="magnify" viewBox="0 0 1500 1499.999933" height="2000" preserveAspectRatio="xMidYMid meet" version="1.0"><defs><clipPath id="249e401297"><path d="M 126.816406 348 L 1371 348 L 1371 1482 L 126.816406 1482 Z M 126.816406 348 " clip-rule="nonzero"/></clipPath></defs><g clip-path="url(#249e401297)"><path fill="#ffffff" d="M 1179.722656 780.988281 C 1182.894531 942.726562 1287.550781 1028.355469 1344.636719 1063.242188 C 1366.835938 1079.097656 1376.347656 1107.640625 1366.835938 1133.011719 C 1350.976562 1174.242188 1322.433594 1234.496094 1274.863281 1297.925781 C 1211.4375 1389.894531 1144.835938 1478.695312 1037.007812 1481.867188 C 932.351562 1485.039062 900.640625 1421.609375 783.296875 1421.609375 C 665.957031 1421.609375 627.898438 1478.695312 529.585938 1481.867188 C 428.101562 1485.039062 348.816406 1383.554688 285.386719 1291.582031 C 155.359375 1107.640625 53.875 768.300781 190.246094 539.960938 C 256.84375 425.789062 377.359375 352.847656 510.558594 352.847656 C 608.871094 349.675781 704.011719 419.449219 764.269531 419.449219 C 824.527344 419.449219 938.695312 340.164062 1059.210938 349.675781 C 1103.609375 352.847656 1211.4375 365.535156 1300.234375 447.992188 C 1322.433594 470.191406 1322.433594 508.246094 1297.0625 530.445312 C 1249.492188 574.847656 1179.722656 657.300781 1179.722656 780.988281 " fill-opacity="1" fill-rule="nonzero"/></g><path fill="#ffffff" d="M 983.09375 222.820312 C 1027.496094 168.90625 1059.210938 99.136719 1062.378906 29.367188 C 1062.378906 3.996094 1043.351562 -15.035156 1017.980469 -8.691406 C 951.382812 7.167969 878.4375 48.394531 830.867188 99.136719 C 792.8125 149.878906 751.582031 222.820312 751.582031 295.761719 C 751.582031 317.964844 770.613281 333.820312 789.640625 330.648438 C 865.753906 324.304688 938.695312 279.90625 983.09375 222.820312 " fill-opacity="1" fill-rule="nonzero"/></svg>